{"title":"La peur, petit chasseur (2004)","uid":10249869,"size":105285632,"categoryP":"video","categoryS":"other","magnet":"?xt=urn:btih:115a8232483c20a2d15354d753141712973d00e3&amp;dn=La+peur%2C+petit+chasseur+%282004%29&amp;tr=udp%3A%2F%2Ftracker.openbittorrent.com%3A80&amp;tr=udp%3A%2F%2Fopen.demonii.com%3A1337&amp;tr=udp%3A%2F%2Ftracker.coppersurfer.tk%3A6969&amp;tr=udp%3A%2F%2Fexodus.desync.com%3A6969","seeders":1,"leechers":0,"uploader":"wesleybl","files":1,"time":1401335584,"description":"Director: Laurent Achard\n &lt;a href=&quot;\nhttp://www.imdb.com/title/tt0422948&quot; rel=&quot;nofollow&quot; target=&quot;_NEW&quot;&gt;\nhttp://www.imdb.com/title/tt0422948&lt;/a&gt;\n\nVideo\nID                                       : 0\nFormat                                   : MPEG-4 Visual\nFormat profile                           : Advanced Simple@L5\nFormat settings, BVOP                    : 2\nFormat settings, QPel                    : No\nFormat settings, GMC                     : No warppoints\nFormat settings, Matrix                  : Default (H.263)\nCodec ID                                 : XVID\nCodec ID/Hint                            : XviD\nDuration                                 : 8mn 13s\nBit rate                                 : 1 505 Kbps\nWidth                                    : 640 pixels\nHeight                                   : 384 pixels\nDisplay aspect ratio                     : 1.667\nFrame rate                               : 25.000 fps\nColor space                              : YUV\nChroma subsampling                       : 4:2:0\nBit depth                                : 8 bits\nScan type                                : Progressive\nCompression mode                         : Lossy\nBits/(Pixel*Frame)                       : 0.245\nStream size                              : 88.5 MiB (88%)\nWriting library                          : XviD 1.1.2 (UTC 2006-11-01)\n\nAudio\nID                                       : 1\nFormat                                   : AC-3\nFormat/Info                              : Audio Coding 3\nMode extension                           : CM (complete main)\nCodec ID                                 : 2000\nDuration                                 : 8mn 13s\nBit rate mode                            : Constant\nBit rate                                 : 192 Kbps\nChannel(s)                               : 2 channels\nChannel positions                        : Front: L R\nSampling rate                            : 48.0 KHz\nBit depth                                : 16 bits\nCompression mode                         : Lossy\nStream size                              : 11.3 MiB (11%)\nAlignment                                : Split accross interleaves\nInterleave, duration                     : 40 ms (1.00 video frame)\nInterleave, preload duration             : 500 ms","torrent":{"xt":"urn:btih:115a8232483c20a2d15354d753141712973d00e3","amp;dn":"La+peur%2C+petit+chasseur+%282004%29","amp;tr":["udp%3A%2F%2Ftracker.openbittorrent.com%3A80","udp%3A%2F%2Fopen.demonii.com%3A1337","udp%3A%2F%2Ftracker.coppersurfer.tk%3A6969","udp%3A%2F%2Fexodus.desync.com%3A6969"],"infoHash":"115a8232483c20a2d15354d753141712973d00e3","infoHashBuffer":{"type":"Buffer","data":[17,90,130,50,72,60,32,162,209,83,84,215,83,20,23,18,151,61,0,227]},"announce":[],"urlList":[]}}